<svg width="188" height="40" viewBox="0 0 188 40" fill="none" xmlns="http://www.w3.org/2000/svg">
<path fill-rule="evenodd" clip-rule="evenodd" d="M0.738187 3.87115C0 5.3485 0 7.27566 0 11.13V28.87C0 32.7243 0 34.6515 0.738187 36.1288C1.41574 37.4848 2.51515 38.5843 3.87115 39.2618C5.3485 40 7.27566 40 11.13 40H28.87C32.7243 40 34.6515 40 36.1288 39.2618C37.4848 38.5843 38.5843 37.4848 39.2618 36.1288C40 34.6515 40 32.7243 40 28.87V11.13C40 7.27566 40 5.3485 39.2618 3.87115C38.5843 2.51515 37.4848 1.41574 36.1288 0.738187C34.6515 0 32.7243 0 28.87 0H11.13C7.27566 0 5.3485 0 3.87115 0.738187C2.51515 1.41574 1.41574 2.51515 0.738187 3.87115ZM27.8305 20.562C27.8305 25.8306 24.6446 29 19.5077 29H13.276V12.1405H19.4995C24.6446 12.1405 27.8305 15.3017 27.8305 20.562ZM17.3509 15.6145V25.526H19.3513C22.1914 25.526 23.7473 24.2089 23.7473 20.562C23.7473 16.9316 22.1914 15.6145 19.2937 15.6145H17.3509Z" fill="#FF4401"/>
<path d="M58.2727 32C65.3636 32 69.6591 27.6136 69.6591 20.3409C69.6591 13.0909 65.3636 8.72727 58.3409 8.72727H50.0227V32H58.2727ZM54.9432 27.7841V12.9432H58.0795C62.4432 12.9432 64.75 15.1705 64.75 20.3409C64.75 25.5341 62.4432 27.7841 58.0682 27.7841H54.9432ZM73.2131 32H78.054V14.5455H73.2131V32ZM75.6449 12.2955C77.0881 12.2955 78.2699 11.1932 78.2699 9.84091C78.2699 8.5 77.0881 7.39773 75.6449 7.39773C74.2131 7.39773 73.0312 8.5 73.0312 9.84091C73.0312 11.1932 74.2131 12.2955 75.6449 12.2955ZM89.7955 38.9091C94.7841 38.9091 98.3295 36.6364 98.3295 32.1705V14.5455H93.5227V17.4773H93.3409C92.6932 16.0568 91.2727 14.3182 88.3523 14.3182C84.5227 14.3182 81.2841 17.2955 81.2841 23.2386C81.2841 29.0455 84.4318 31.75 88.3636 31.75C91.1477 31.75 92.7045 30.3523 93.3409 28.9091H93.5455V32.1023C93.5455 34.5 92.0114 35.4318 89.9091 35.4318C87.7727 35.4318 86.6932 34.5 86.2955 33.4432L81.8182 34.0455C82.3977 36.7955 85.0909 38.9091 89.7955 38.9091ZM89.8977 28.1136C87.5227 28.1136 86.2273 26.2273 86.2273 23.2159C86.2273 20.25 87.5 18.1705 89.8977 18.1705C92.25 18.1705 93.5682 20.1591 93.5682 23.2159C93.5682 26.2955 92.2273 28.1136 89.8977 28.1136ZM102.182 32H107.023V14.5455H102.182V32ZM104.614 12.2955C106.057 12.2955 107.239 11.1932 107.239 9.84091C107.239 8.5 106.057 7.39773 104.614 7.39773C103.182 7.39773 102 8.5 102 9.84091C102 11.1932 103.182 12.2955 104.614 12.2955ZM118.787 32.3409C123.435 32.3409 126.355 29.6136 126.582 25.6023H122.014C121.73 27.4659 120.503 28.5114 118.844 28.5114C116.582 28.5114 115.116 26.6136 115.116 23.2727C115.116 19.9773 116.594 18.0909 118.844 18.0909C120.616 18.0909 121.753 19.2614 122.014 21H126.582C126.378 16.9659 123.321 14.3182 118.764 14.3182C113.469 14.3182 110.196 17.9886 110.196 23.3409C110.196 28.6477 113.412 32.3409 118.787 32.3409ZM134.523 21.9091C134.534 19.6591 135.909 18.3409 137.886 18.3409C139.852 18.3409 141.011 19.6023 141 21.75V32H145.841V20.8864C145.852 16.7955 143.443 14.3182 139.807 14.3182C137.159 14.3182 135.386 15.5682 134.591 17.625H134.386V8.72727H129.682V32H134.523V21.9091ZM149.651 32H154.491V14.5455H149.651V32ZM152.082 12.2955C153.526 12.2955 154.707 11.1932 154.707 9.84091C154.707 8.5 153.526 7.39773 152.082 7.39773C150.651 7.39773 149.469 8.5 149.469 9.84091C149.469 11.1932 150.651 12.2955 152.082 12.2955ZM166.324 32.3409C170.642 32.3409 173.551 30.2386 174.233 27L169.756 26.7045C169.267 28.0341 168.017 28.7273 166.403 28.7273C163.983 28.7273 162.449 27.125 162.449 24.5227V24.5114H174.335V23.1818C174.335 17.25 170.744 14.3182 166.131 14.3182C160.994 14.3182 157.665 17.9659 157.665 23.3523C157.665 28.8864 160.949 32.3409 166.324 32.3409ZM162.449 21.5114C162.551 19.5227 164.062 17.9318 166.21 17.9318C168.312 17.9318 169.767 19.4318 169.778 21.5114H162.449ZM186.881 14.5455H183.415V13.375C183.415 12.1932 183.892 11.5 185.312 11.5C185.892 11.5 186.483 11.625 186.869 11.75L187.722 8.11364C187.119 7.93182 185.79 7.63636 184.301 7.63636C181.017 7.63636 178.574 9.48864 178.574 13.2841V14.5455H176.108V18.1818H178.574V32H183.415V18.1818H186.881V14.5455Z" fill="white"/>
</svg>
